/* XPM */
static char *result[] = {
/* columns rows colors chars-per-pixel */
"30 30 9 1 ",
"  c #00A400",
". c #17111A",
"X c #E66161",
"o c #D13336",
"O c #EF9898",
"+ c #A9303D",
"@ c #812B3B",
"# c #502539",
"$ c #3C1727",
/* pixels */
"                              ",
"                              ",
"            ....              ",
"           .XXoo.             ",
"          .XXXooo.            ",
"         .XXXXoooo.           ",
"        .XXXXXooooo.          ",
"       .XXXXOooooooo.         ",
"      .XXXXOo++oooooo.        ",
"     .@oXOOo++++oooo##.       ",
"     .@@ooo++++++oo###.       ",
"     .@@@@o+++++++####.       ",
"     .@@@@o+++++++####.       ",
"     .@@@@o+++++++####.       ",
"     .@@@@++++++++####.       ",
"     .@@@@o+++++++####.       ",
"     .@@@@++++++++####.       ",
"     .@@@@++++++++####.       ",
"     .@@@@++++++++####.       ",
"     .@@###++++++#$$##.       ",
"     .@#####++++$$$$$#.       ",
"      .######++$$$$$$.        ",
"       .######$$$$$$.         ",
"        .#####$$$$$.          ",
"         .####$$$$.           ",
"          .###$$$.            ",
"           .##$$.             ",
"            ....              ",
"                              ",
"                              "
};
