/* XPM */
static char *result[] = {
/* columns rows colors chars-per-pixel */
"30 30 9 1 ",
"  c #00A430",
". c #17111A",
"X c #E66161",
"o c #D13336",
"O c #EF9898",
"+ c #A9303D",
"@ c #812B3B",
"# c #502539",
"$ c #3C1727",
/* pixels */
"                              ",
"                              ",
"             ..               ",
"             Xo.              ",
"            .Xoo              ",
"            XXoo.             ",
"           .XXooo             ",
"           XXOooo.            ",
"          .XXo+ooo            ",
"          @XO++oo#.           ",
"          @oo+++o#.           ",
"          @@o+++##.           ",
"          @@o+++##.           ",
"          @@o+++##.           ",
"          @@++++##.           ",
"          @@o+++##.           ",
"          @@++++##.           ",
"          @@++++##.           ",
"          @@++++##.           ",
"          @##+++$#.           ",
"          @##++$$$.           ",
"          .###+$$$            ",
"           ###$$$.            ",
"           .##$$$             ",
"            ##$$.             ",
"            .#$$              ",
"             #$.              ",
"             ..               ",
"                              ",
"                              "
};
