/* XPM */
static char *result[] = {
/* columns rows colors chars-per-pixel */
"30 30 7 1 ",
"  c #00A400",
". c #21110D",
"X c #9D7658",
"o c #503625",
"O c #755338",
"+ c #342319",
"@ c #502539",
/* pixels */
"                              ",
"             ....             ",
"             ....             ",
"   ..........XXXX..........   ",
"   ..........XXXX..........   ",
" ..XXXXXXXXXXooooXXXXXXXXXX.. ",
" ..XXXXXXXXXXooooXXXXXXXXXX.. ",
" ..OOOOOOOOOOOOOOOOOOOOOOOO.. ",
" ..OOOOOOOOOOOOOOOOOOOOOOOO.. ",
" ..OOOOOOOO++++OOOOOOOOOOOO.. ",
" ..OOOOOOOO++++OOOOOOOOOOOO.. ",
" ..OO++++OOOO++++OO++OOOOOO.. ",
" ..OO++++OOOO++++OO++OOOOOO.. ",
" ..OO++OO++OO++OOOO++OO++OO.. ",
" ..OO++OO++OO++OOOO++OO++OO.. ",
" ..OOOOOOOOOOOOOO++OOOOOOOO.. ",
" ..OOOOOOOOOOOOOO++OOOOOOOO.. ",
" ..OOOOOOOOOOOOOOOOOOOOOOOO.. ",
" ..OOOOOOOOOOOOOOOOOOOOOOOO.. ",
"   ..........oooo..........   ",
"   ..........oooo..........   ",
"           ..oooo..           ",
"           ..oooo..           ",
"     @@@@@@..oooo..@@@@@@     ",
"     @@@@@@..oooo..@@@@@@     ",
"     @@@@@@@@@@@@@@@@@@@@     ",
"     @@@@@@@@@@@@@@@@@@@@     ",
"                              ",
"                              ",
"                              "
};
