/* XPM */
static char *result[] = {
/* columns rows colors chars-per-pixel */
"30 30 146 2 ",
"   c #010502",
".  c #020C02",
"X  c #0C0B06",
"o  c #110B07",
"O  c #061808",
"+  c #1F150A",
"@  c #1B1E0E",
"#  c #201711",
"$  c #351F17",
"%  c #012502",
"&  c #002802",
"*  c #0C280B",
"=  c #112B0B",
"-  c #1F2119",
";  c #2D2515",
":  c #362B13",
">  c #383115",
",  c #181F23",
"<  c #332B21",
"1  c #3D382A",
"2  c #3E3D3C",
"3  c #502E16",
"4  c #413418",
"5  c #553018",
"6  c #57351A",
"7  c #593628",
"8  c #025D02",
"9  c #0D4C12",
"0  c #0C5C1E",
"q  c #254513",
"w  c #006100",
"e  c #017600",
"r  c #007C00",
"t  c #0D601F",
"y  c #0C7B1E",
"u  c #23710B",
"i  c #2F7B1F",
"p  c #307D1F",
"a  c #156120",
"s  c #0F7928",
"d  c #0E7326",
"f  c #107928",
"g  c #296C25",
"h  c #236322",
"j  c #58411B",
"k  c #5C4F22",
"l  c #5D5021",
"z  c #604A25",
"x  c #764725",
"c  c #615620",
"v  c #635821",
"b  c #614535",
"n  c #7A5430",
"m  c #7C572A",
"M  c #767E31",
"N  c #284256",
"B  c #47507A",
"V  c #98731A",
"C  c #83542C",
"Z  c #885A2B",
"A  c #855932",
"S  c #8D613F",
"D  c #936936",
"F  c #9D743E",
"G  c #9E7536",
"H  c #A47D3E",
"J  c #8D6B43",
"K  c #956945",
"L  c #976C49",
"P  c #97704A",
"I  c #A77F42",
"U  c #A87F42",
"Y  c #058103",
"T  c #1C8529",
"R  c #329427",
"E  c #339729",
"W  c #389528",
"Q  c #349929",
"!  c #3E853E",
"~  c #00A430",
"^  c #3FA128",
"/  c #49991F",
"(  c #4A8A26",
")  c #7C8135",
"_  c #40A429",
"`  c #3E8741",
"'  c #3F8840",
"]  c #878739",
"[  c #8C8837",
"{  c #918C36",
"}  c #AA843C",
"|  c #B79631",
" . c #BB9C31",
".. c #BEA12D",
"X. c #DDB83B",
"o. c #E2BD3D",
"O. c #BCD40B",
"+. c #D7CB0E",
"@. c #C4DC0C",
"#. c #DFD514",
"$. c #E9DF0F",
"%. c #E3D614",
"&. c #E8DC12",
"*. c #CAE20C",
"=. c #F7F306",
"-. c #F9F604",
";. c #FCFA01",
":. c #EFE116",
">. c #E5C03B",
",. c #B48844",
"<. c #B18E5C",
"1. c #B8AB43",
"2. c #9A9F61",
"3. c #AC8D6D",
"4. c #B79466",
"5. c #BA9670",
"6. c #9CA264",
"7. c #9EA673",
"8. c #A8B072",
"9. c #CA9E49",
"0. c #DCAC4F",
"q. c #D2A647",
"w. c #DAA950",
"e. c #E4BF45",
"r. c #C6A473",
"t. c #3E5C9E",
"y. c #556187",
"u. c #61758B",
"i. c #1E92B7",
"p. c #3FB7CE",
"a. c #B6B4B3",
"s. c #D1B38D",
"d. c #D6B58B",
"f. c #DCBD94",
"g. c #DCBF9A",
"h. c #CABFB0",
"j. c #B4CEBC",
"k. c #E0C097",
"l. c #E6CA9B",
"z. c #CDC2B3",
"x. c #EDD2A9",
"c. c #FEE5BC",
"v. c #D7CBC4",
"b. c #E8DCC4",
"n. c #FDEACB",
"m. c #F1E0C2",
/* pixels */
"~ ~ ~ ~ ~ ~ ~ ~ ~ ~ ~ ~ ~ ~ ~ ~ ~ ~ ~ ~ ~ ~ ~ ~ ~ ~ ~ ~ ~ ~ ",
"~ ~ ~ ~ ~ ~ ~ ~ ~ ~ ~ ~ ~ ~ ~ ~ ~ ~ ~ ~ ~ ~ ~ ~ ~ ~ ~ ~ ~ ~ ",
"~ ~ ~ ~ ~ ~ ~ ~ ~ ~ ~ ~ ~ ~ ~ ~ ~ ~ ~ ~ ~ ~ ~ ~ ~ ~ ~ ~ ~ ~ ",
"~ ~ ~ ~ ~ ~ ~ ~ ~ ~ ~ ~ & y y & r ~ ~ ~ ~ ~ ~ ~ ~ ~ ~ ~ ~ ~ ",
"~ ~ ~ ~ ~ ~ ~ ~ ~ r % % 0 s s 0 % % r ~ ~ ~ ~ ~ ~ ~ ~ ~ ~ ~ ",
"~ ~ ~ ~ ~ ~ ~ ~ r & 0 i Q Q Q Q p 0 % r ~ ~ ~ ~ ~ ~ ~ ~ ~ ~ ",
"~ ~ ~ ~ ~ ~ ~ ~ r . d T T T T T T f . r ~ ~ ~ ~ ~ ~ ~ ~ ~ ~ ",
"~ ~ ~ ~ ~ ~ ~ r & 0 Q Q Q Q Q Q Q E t * e ~ ~ ~ ~ ~ ~ ~ ~ ~ ",
"~ ~ ~ ~ ~ ~ ~ r . R ] *.{ @.{ *.*.{ W   e ~ ~ ~ ~ ~ ~ ~ ~ ~ ",
"~ ~ ~ ~ ~ ~ r % 0 ] %.;.$.;.} -...%.1.a % r ~ ~ ~ ~ ~ ~ ~ ~ ",
"~ ~ ~ ~ Y ) 6.6 j 9.-...=...,.=.H  .:.c 6 2.M Y ~ ~ ~ ~ ~ ~ ",
"~ ~ ~ ~ r m x.f.F ,.=.q.=.} #. .r.U =.G f.x.A r ~ ~ ~ ~ ~ ~ ",
"~ ~ ~ ~ ~ u J K I %.o.0.;.} =.} s.l.e.H s.P u ~ ~ ~ ~ ~ ~ ~ ",
"~ ~ ~ ~ ~ r @ i.n | 0.,.o.&.;.Z x.f.D #.p.; e ~ ~ ~ ~ ~ ~ ~ ",
"~ ~ ~ ~ ~ r . 7.+.H 4 I w. .V 4.L 1 D =.8.O r ~ ~ ~ ~ ~ ~ ~ ",
"~ ~ ~ ~ ~ ~ w > X.C a.y.A C s.A B a.C e.4 8 r ~ ~ ~ ~ ~ ~ ~ ",
"~ ~ ~ ~ ~ ~ ~ w > D m.t.v.g.c.v.t.b.; : 8 r ~ ~ ~ ~ ~ ~ ~ ~ ",
"~ ~ ~ ~ ~ ~ ~ ~ w ; 4.h.n.c.c.n.z.4.X 4 * e ~ ~ ~ ~ ~ ~ ~ ~ ",
"~ ~ ~ ~ ~ ~ ~ ~ r . x L f.f.f.k.P C a.7 5 % r ~ ~ ~ ~ ~ ~ ~ ",
"~ ~ ~ ~ ~ ~ ~ ~ r . h q ! ` ` ` q + 7 3.x X e ~ ~ ~ ~ ~ ~ ~ ",
"~ ~ ~ ~ ~ ~ ~ Y % N j.k l O.@.v 6 0   < + 8 r ~ ~ ~ ~ ~ ~ ~ ",
"~ ~ ~ ~ ~ ~ r & 6 b u.# h / / g ( E t   8 r ~ ~ ~ ~ ~ ~ ~ ~ ",
"~ ~ ~ ~ ~ ~ r . s.5., 0 f Q Q Q _ _ *   e ~ ~ ~ ~ ~ ~ ~ ~ ~ ",
"~ ~ ~ ~ ~ ~ ~ w 1 <   9 Q ^ _ _ T = $   e ~ ~ ~ ~ ~ ~ ~ ~ ~ ",
"~ ~ ~ ~ ~ ~ ~ ~ w w w O * = = = *   o 8 r ~ ~ ~ ~ ~ ~ ~ ~ ~ ",
"~ ~ ~ ~ ~ ~ ~ ~ ~ ~ ~ w w w 8 w 8 w w r ~ ~ ~ ~ ~ ~ ~ ~ ~ ~ ",
"~ ~ ~ ~ ~ ~ ~ ~ ~ ~ ~ ~ ~ ~ ~ ~ ~ ~ ~ ~ ~ ~ ~ ~ ~ ~ ~ ~ ~ ~ ",
"~ ~ ~ ~ ~ ~ ~ ~ ~ ~ ~ ~ ~ ~ ~ ~ ~ ~ ~ ~ ~ ~ ~ ~ ~ ~ ~ ~ ~ ~ ",
"~ ~ ~ ~ ~ ~ ~ ~ ~ ~ ~ ~ ~ ~ ~ ~ ~ ~ ~ ~ ~ ~ ~ ~ ~ ~ ~ ~ ~ ~ ",
"~ ~ ~ ~ ~ ~ ~ ~ ~ ~ ~ ~ ~ ~ ~ ~ ~ ~ ~ ~ ~ ~ ~ ~ ~ ~ ~ ~ ~ ~ "
};
