/* XPM */
static char *result[] = {
/* columns rows colors chars-per-pixel */
"30 30 124 2 ",
"   c #030603",
".  c #030D04",
"X  c #080B05",
"o  c #030C0C",
"O  c #0D0B08",
"+  c #130F07",
"@  c #011406",
"#  c #0A1107",
"$  c #031A07",
"%  c #0D1C05",
"&  c #131F04",
"*  c #15130C",
"=  c #031115",
"-  c #141413",
";  c #1A1711",
":  c #131A11",
">  c #191D13",
",  c #0C3D0C",
"<  c #1A2213",
"1  c #42251D",
"2  c #48281E",
"3  c #613B1C",
"4  c #6B3D1E",
"5  c #0D440E",
"6  c #0C480F",
"7  c #134D0F",
"8  c #0D4D11",
"9  c #114110",
"0  c #134C12",
"q  c #0E6D24",
"w  c #116F25",
"e  c #0F7526",
"r  c #0F7827",
"t  c #0F7F29",
"y  c #107526",
"u  c #107927",
"i  c #187927",
"p  c #1A732C",
"a  c #127A28",
"s  c #187A2F",
"d  c #207B26",
"f  c #64401D",
"g  c #7A4E1E",
"h  c #7B561F",
"j  c #6C4321",
"k  c #654820",
"l  c #774927",
"z  c #7A4B27",
"x  c #754728",
"c  c #6B5121",
"v  c #7F5120",
"b  c #35506B",
"n  c #395673",
"m  c #805221",
"M  c #81502C",
"N  c #885A37",
"B  c #95713E",
"V  c #91783C",
"C  c #9B7D3B",
"Z  c #A2793E",
"A  c #947341",
"S  c #A57D45",
"D  c #A87F41",
"F  c #008D29",
"G  c #10812A",
"H  c #00942B",
"J  c #08942B",
"K  c #009D2D",
"L  c #089D2E",
"P  c #149F32",
"I  c #3A9224",
"U  c #3C9C26",
"Y  c #3A9D29",
"T  c #01A22E",
"R  c #08A42D",
"E  c #00A430",
"W  c #0CA031",
"Q  c #15A133",
"!  c #3DA228",
"~  c #449F25",
"^  c #439D28",
"/  c #41A329",
"(  c #A3833D",
")  c #AC853E",
"_  c #A78B39",
"`  c #AD8839",
"'  c #D4E505",
"]  c #EAE702",
"[  c #E9EC04",
"{  c #EFE80C",
"}  c #F3ED0A",
"|  c #E8F205",
" . c #F8F704",
".. c #F7F109",
"X. c #A98141",
"o. c #B18A52",
"O. c #B89B77",
"+. c #C69B46",
"@. c #CEA445",
"#. c #CBA84C",
"$. c #D3A24C",
"%. c #D7B049",
"&. c #DEB04B",
"*. c #C7A87E",
"=. c #D5B67C",
"-. c #D8B97F",
";. c #18ACDA",
":. c #C7A880",
">. c #CCAD85",
",. c #D0AF86",
"<. c #CFB188",
"1. c #D3B287",
"2. c #D2B289",
"3. c #E2D1A6",
"4. c #E7D0A9",
"5. c #EFD6AD",
"6. c #F4DAAF",
"7. c #ECDEBA",
"8. c #F2D9B0",
"9. c #F8DFB5",
"0. c #F8E1A8",
"q. c #F4E1B6",
"w. c #D7DDDA",
"e. c #E9EFEC",
/* pixels */
"E E E E E E E E E E E E E E E E E E E E E E E E E E E E E E ",
"E E E E E E E E E E E E E E E E E E E E E E E E E E E E E E ",
"E E E E E E E E E E E E E E E E E E E E E E E E E E E E E E ",
"E E E E E E E E E E E E E E E E E E E E E E E E E E E E E E ",
"E E E E E E E E E E T T E E E R E W W E E E E E E E E E E E ",
"E E E E E E E E E E T G ! ! ! 0 u c C Q E E E E E E E E E E ",
"E E E E E E E E T G a ! / ! ! 7 ^ [  .%.( Q T E E E E E E E ",
"E E E E E E E K 8 r Y / / / 7 U #.&.X.X.} _ Q T E E E E E E ",
"E E E E E E T 8 r a a Y / U 7 ~ ( } ) $.X.} ( W E E E E E E ",
"E E E E E E T 6 r t u 6 5 7 U | ) } =.M $...h L E E E E E E ",
"E E E E E T 8 r u r u r y 7 i [ ` D 1.,.z C P E E E E E E E ",
"E E E E T T 5 r r 5 5 r 6 y V Z ..-.8.2.* J T E E E E E E E ",
"E E E E E K @ e 6   , 0 i 0 j Z ..0.N S * H E E E E E E E E ",
"E E E E E K @ , 5   , 3.q.2.l $.Z 1.8.2.>.: H E E E E E E E ",
"E E E E E T @ q . F @ B 6.7.; ] m 5.o.S *.: H E E E E E E E ",
"E E E E T T @ , . H % + A ;.= ] m 6.q.>.< F E E E E E E E E ",
"E E E E E E K $ H R ' @.* o   ] g *.<.> H E E E E E E E E E ",
"E E E E E E E K E E R @ , w X +.* 9 X F E E E E E E E E E E ",
"E E E E E E E E E E K . q . 3 # q r r & F E E E E E E E E E ",
"E E E E E E E E E E K @ w . p s @ w y ' & H E E E E E E E E ",
"E E E E E E E E E T $ q k O w.e.- 3 g i . H E E E E E E E E ",
"E E E E E E E E E T @ e Y o b n O I Y U $ H E E E E E E E E ",
"E E E E E E E E E E K $ I X 4 x X q U $ H E E E E E E E E E ",
"E E E E E E E E E T T K $   O.4.-   X F T E E E E E E E E E ",
"E E E E E E E E E E E E K @ X O 1 2 4 X H E E E E E E E E E ",
"E E E E E E E E E E E E E K @   1 4 4 X K E E E E E E E E E ",
"E E E E E E E E E E E E E E K K @   . H E E E E E E E E E E ",
"E E E E E E E E E E E E E E E E K K K E E E E E E E E E E E ",
"E E E E E E E E E E E E E E E E E E E E E E E E E E E E E E ",
"E E E E E E E E E E E E E E E E E E E E E E E E E E E E E E "
};
