/* XPM */
static char *result[] = {
/* columns rows colors chars-per-pixel */
"30 30 126 2 ",
"   c #030502",
".  c #030B04",
"X  c #0A0C06",
"o  c #110F0B",
"O  c #031406",
"+  c #0E1007",
"@  c #011907",
"#  c #061508",
"$  c #0D130C",
"%  c #021A09",
"&  c #0A1A0D",
"*  c #13140A",
"=  c #021710",
"-  c #131910",
";  c #15220D",
":  c #3F241B",
">  c #44261D",
",  c #4A291E",
"<  c #663B1D",
"1  c #6B3D1E",
"2  c #53372D",
"3  c #6A3F20",
"4  c #11450F",
"5  c #164813",
"6  c #1C4917",
"7  c #244F1F",
"8  c #126F24",
"9  c #0F7024",
"0  c #117425",
"q  c #197427",
"w  c #147927",
"e  c #197F27",
"r  c #16752A",
"t  c #1E762B",
"y  c #147C2A",
"u  c #187C28",
"i  c #65441E",
"p  c #74511E",
"a  c #6D4322",
"s  c #6B4A21",
"d  c #724523",
"f  c #754A25",
"g  c #7A4A26",
"h  c #7D4D2A",
"j  c #6B5026",
"k  c #6B5428",
"l  c #7F5027",
"z  c #7B532E",
"x  c #304D67",
"c  c #825324",
"v  c #80502A",
"b  c #946E3A",
"n  c #9D733C",
"m  c #9C7D3F",
"M  c #A37D3E",
"N  c #A57D46",
"B  c #008E29",
"V  c #1B8127",
"C  c #00932B",
"Z  c #009D2E",
"A  c #0B9B2F",
"S  c #0B9530",
"D  c #3E9526",
"F  c #3B9C27",
"G  c #3C9C28",
"H  c #01A22F",
"J  c #00A430",
"K  c #0AA232",
"L  c #3DA129",
"P  c #439526",
"I  c #499D2B",
"U  c #44A427",
"Y  c #41A029",
"T  c #05A241",
"R  c #9A803D",
"E  c #A7813C",
"W  c #AA833D",
"Q  c #AC8A39",
"!  c #B18E37",
"~  c #B08C39",
"^  c #DDE306",
"/  c #EAE705",
"(  c #EEE60C",
")  c #EEEB08",
"_  c #F2ED07",
"`  c #F2EB0A",
"'  c #E6F003",
"]  c #F3F206",
"[  c #F8F405",
"{  c #F6F108",
"}  c #FBF508",
"|  c #E6EE11",
" . c #908040",
".. c #9C8045",
"X. c #AC8541",
"o. c #AB844B",
"O. c #AF8851",
"+. c #B18A52",
"@. c #BB9E78",
"#. c #C99F46",
"$. c #CFA248",
"%. c #D6A64A",
"&. c #D8A74E",
"*. c #DBAB4C",
"=. c #DEB248",
"-. c #D7A652",
";. c #E2B745",
":. c #C4AB7E",
">. c #0AB1DC",
",. c #1DB7D6",
"<. c #C7AF82",
"1. c #CCAB82",
"2. c #C8AE88",
"3. c #D1AF86",
"4. c #CDB289",
"5. c #D0B489",
"6. c #DACAA2",
"7. c #E4D0A9",
"8. c #EED5AA",
"9. c #F2D7AB",
"0. c #F5DCB3",
"q. c #F8DFB5",
"w. c #F8E0B6",
"e. c #FDE4BB",
"r. c #D8DFDE",
"t. c #D9E1D9",
/* pixels */
"J J J J J J J J J J J J J J J J J J J J J J J J J J J J J J ",
"J J J J J J J J J J J J J J J J J J J J J J J J J J J J J J ",
"J J J J J J J J J J J Z J J J J Z H J J J J J J J J J J J J ",
"J J J J J J J J J J Z @ 9 y y y @ C J J J J J J J J J J J J ",
"J J J J J J J J J Z % 9 L L L L w @ C H J J J J J J J J J J ",
"J J J J J J J J Z % 9 y y V V y w w @ B J J J J J J J J J J ",
"J J J J J J J H @ 9 G U U L L L G Y w @ Z H J J J J J J J J ",
"J J J J J J J Z O D R ] ] Q m ] Q M I O C H J H J J J J J J ",
"J J J J J K A # 8 m W { ! ( Q { _ ~ N q # S K H J J J J J J ",
"J J J J J  .<.h a %.` ;.` ~ ` ;.X.( Q d d :...K J J J J J J ",
"J J J J J k 9.0.N ( ~ _ ~ M _ W 3.X.` W 9.q.z A J J J J J J ",
"J J J J J A k 2.c M &.} } %.c 3.q.o.%.X.4.z A H J J J J J J ",
"J J J J J J J >.| c -.*.M v 1.0.q.3.v ) ,.T J J J J J J J J ",
"J J J J J J J = ) M 9.o.c 1.q.O.o.v n _ ; C J J J J J J J J ",
"J J J J J J H O #.g 3.0.q.q.e.q.q.3.f %.* C J J J J J J J J ",
"J J J J H H H Z +   1 N o.q.e.O.N g X . C J J J J J J J J J ",
"J J J J J J J J B # b 8.w.e.e.q.0.N o B J J J J J J J J J J ",
"J J J J J J J Z % r a f <.4.5.5.z a t O B J J J J J J J J J ",
"J J J J J J Z # x r.7 w y y y y r 4 t.2 X C J J J J J J J J ",
"J J J J J Z @ 3 d * i q r V V y r s o a d + C J J J J J J J ",
"J J J J J Z % @.7.6 D s i ^ ' p s P 4 6.2.- C J J J J J J J ",
"J J J J J J Z & $   9 G e V V y G w . $ $ B J J J J J J J J ",
"J J J J J J J Z C .   9 G G G F w O   B Z J J J J J J J J J ",
"J J J J J J J H O < , X   . .     > 1 X C J J J J J J J J J ",
"J J J J J J J H O < 1 > . C Z . : 1 1 X Z J J J J J J J J J ",
"J J J J J J J J Z O   . C J J Z O   . C J J J J J J J J J J ",
"J J J J J J J J J H Z Z J J J J Z Z Z J J J J J J J J J J J ",
"J J J J J J J J J J J J J J J J J J J J J J J J J J J J J J ",
"J J J J J J J J J J J J J J J J J J J J J J J J J J J J J J ",
"J J J J J J J J J J J J J J J J J J J J J J J J J J J J J J "
};
