/* XPM */
static char *result[] = {
/* columns rows colors chars-per-pixel */
"30 30 121 2 ",
"   c #060604",
".  c #030C04",
"X  c #090B04",
"o  c #00090A",
"O  c #0E0B09",
"+  c #140F07",
"@  c #021406",
"#  c #0A1105",
"$  c #041B07",
"%  c #051608",
"&  c #0C1609",
"*  c #031E08",
"=  c #091A0B",
"-  c #121302",
";  c #191604",
":  c #1C150B",
">  c #101E0F",
",  c #141313",
"<  c #0C2207",
"1  c #0B3C0C",
"2  c #46271E",
"3  c #4A291F",
"4  c #653B1D",
"5  c #6B3C1E",
"6  c #4B2D24",
"7  c #503026",
"8  c #0D450E",
"9  c #0D490F",
"0  c #124C0F",
"q  c #0D4B11",
"w  c #124210",
"e  c #1A4713",
"r  c #144D13",
"t  c #1C4A17",
"y  c #0E6D23",
"u  c #106D24",
"i  c #0F7425",
"p  c #0F7827",
"a  c #0F7E2A",
"s  c #147527",
"d  c #197526",
"f  c #117927",
"g  c #197927",
"h  c #15742A",
"j  c #117B28",
"k  c #1A7A2E",
"l  c #63411D",
"z  c #6C441F",
"x  c #6C4022",
"c  c #674A20",
"v  c #764523",
"b  c #764F20",
"n  c #784A25",
"m  c #685123",
"M  c #7F502B",
"N  c #81512B",
"B  c #917F3D",
"V  c #9B793E",
"C  c #997440",
"Z  c #937E50",
"A  c #008D29",
"S  c #16822A",
"D  c #00942B",
"F  c #019B2D",
"G  c #089B2B",
"H  c #089E30",
"J  c #258326",
"K  c #379024",
"L  c #3A9224",
"P  c #3C9C26",
"I  c #01A12F",
"U  c #13AA2C",
"Y  c #00A430",
"T  c #0AA331",
"R  c #3EA228",
"E  c #499F2A",
"W  c #49A425",
"Q  c #41A329",
"!  c #4DA229",
"~  c #52A727",
"^  c #96853C",
"/  c #AB843C",
"(  c #AE8A3A",
")  c #D4D901",
"_  c #E7EB07",
"`  c #EEE905",
"'  c #EEE70C",
"]  c #F2ED05",
"[  c #F3EE09",
"{  c #EFF006",
"}  c #F3F006",
"|  c #F6F10D",
" . c #F4EF10",
".. c #F9F512",
"X. c #AA8244",
"o. c #A6814B",
"O. c #AB834B",
"+. c #BF9645",
"@. c #BC9F7B",
"#. c #BDA17A",
"$. c #C39845",
"%. c #CFA84D",
"&. c #D4A34D",
"*. c #D5A94D",
"=. c #DAAC49",
"-. c #C2A47E",
";. c #C9A77E",
":. c #0FA7DB",
">. c #C1A580",
",. c #CBAB82",
"<. c #CEB086",
"1. c #D1B085",
"2. c #D6B68B",
"3. c #D8B98F",
"4. c #DBC6A2",
"5. c #DED1B0",
"6. c #F3D8AE",
"7. c #F4DCB2",
"8. c #F9E1B8",
"9. c #DBDDDB",
"0. c #EDEFED",
/* pixels */
"Y Y Y Y Y Y Y Y Y Y Y Y Y Y Y Y Y Y Y Y Y Y Y Y Y Y Y Y Y Y ",
"Y Y Y Y Y Y Y Y Y Y Y Y Y Y Y Y Y Y Y Y Y Y Y Y Y Y Y Y Y Y ",
"Y Y Y Y Y Y Y Y Y Y Y Y Y Y Y Y Y Y Y Y Y Y Y Y Y Y Y Y Y Y ",
"Y Y Y Y Y Y Y Y Y Y Y T T Y I Y T Y Y Y Y Y Y Y Y Y Y Y Y Y ",
"Y Y Y Y Y Y Y Y Y Y T ^ b g q P R R S T I Y Y Y Y Y Y Y Y Y ",
"Y Y Y Y Y Y Y Y T ^ *.} ] ~ 0 P Q R R S j F Y Y Y Y Y Y Y Y ",
"Y Y Y Y Y Y Y T ^ ' / X.=.*.E 0 P Q R R j q F Y Y Y Y Y Y Y ",
"Y Y Y Y Y Y Y B [ ( &.X.} / ! 0 P R R S j j q F Y Y Y Y Y Y ",
"Y Y Y Y Y Y T m ] =.N ,.| / ] W 9 8 8 p f a 8 F Y Y Y Y Y Y ",
"Y Y Y Y Y Y Y I ^ n ;.2.X./ [ J q s f f a f a q F Y Y Y Y Y ",
"Y Y Y Y Y Y Y Y H & -.7.3.[ ( V h q i 9 1 i a 9 F Y Y Y Y Y ",
"Y Y Y Y Y Y Y Y F & C N 6.../ v e h r 8 . 1 y . F Y Y Y Y Y ",
"Y Y Y Y Y Y Y F @ -.1.7.3.X.*.v ,.7.7.t . 1 8 . D Y Y Y Y Y ",
"Y Y Y Y Y Y Y Y % @.O.O.6.N ] ; 5.7.o.X A @ y . D I Y Y Y Y ",
"Y Y Y Y Y Y Y Y F > #.7.7.M ] - :.Z : X D @ 1 . F Y Y Y Y Y ",
"Y Y Y Y Y Y Y Y Y F = >.1.n ` - . X +._ U F @ D Y Y Y Y Y Y ",
"Y Y Y Y Y Y Y Y Y Y D % w # $.+ y 1   G Y Y I I Y Y Y Y Y Y ",
"Y Y Y Y Y Y Y Y I F < i f y & 4 . y . F Y Y Y Y Y Y I Y Y Y ",
"Y Y Y Y Y Y Y Y I $ ) J f @ h k   s . D Y Y Y Y Y Y Y Y Y Y ",
"Y Y Y Y Y Y Y Y F @ d c z O 9.0., l s . F Y Y Y Y Y Y Y Y Y ",
"Y Y Y Y Y Y Y Y I $ K Q E . 6 7   L f @ D Y Y Y Y Y Y Y Y Y ",
"Y Y Y Y Y Y Y Y Y F * K p . x v X K $ D Y Y Y Y Y Y Y Y Y Y ",
"Y Y Y Y Y Y Y Y Y Y D %     4.,.O . D Y Y Y Y Y Y Y Y Y Y Y ",
"Y Y Y Y Y Y Y Y Y F @ 4 2 2 O   . D Y Y Y Y Y Y Y Y Y Y Y Y ",
"Y Y Y Y Y Y Y Y Y I $ 4 5 3 . . D Y Y Y Y Y Y Y Y Y Y Y Y Y ",
"Y Y Y Y Y Y Y Y Y Y F @   @ A F I I Y Y Y Y Y Y Y Y Y Y Y Y ",
"Y Y Y Y Y Y Y Y Y Y Y F F F Y Y Y Y Y Y Y Y Y Y Y Y Y Y Y Y ",
"Y Y Y Y Y Y Y Y Y Y Y Y Y Y Y Y Y Y Y Y Y Y Y Y Y Y Y Y Y Y ",
"Y Y Y Y Y Y Y Y Y Y Y Y Y Y Y Y Y Y Y Y Y Y Y Y Y Y Y Y Y Y ",
"Y Y Y Y Y Y Y Y Y Y Y Y Y Y Y Y Y Y Y Y Y Y Y Y Y Y Y Y Y Y "
};
