/* XPM */
static char *result[] = {
/* columns rows colors chars-per-pixel */
"30 30 241 2 ",
"   c #00A430",
".  c #037F01",
"X  c #058003",
"o  c #058103",
"O  c #067701",
"+  c #6E4C20",
"@  c #A17E3B",
"#  c #A2813C",
"$  c #9E7A3D",
"%  c #714A20",
"&  c #0F8301",
"*  c #088104",
"=  c #007400",
"-  c #0B1C06",
";  c #CBA348",
":  c #EFF107",
">  c #EDEE07",
",  c #A3823C",
"<  c #A17E3D",
"1  c #EDF004",
"2  c #998239",
"3  c #128007",
"4  c #007800",
"5  c #041703",
"6  c #3A9524",
"7  c #45A029",
"8  c #46A326",
"9  c #439E28",
"0  c #47A127",
"q  c #EEF304",
"w  c #A9833E",
"e  c #99803B",
"r  c #0B7E04",
"t  c #021203",
"y  c #399424",
"u  c #124B10",
"i  c #10480F",
"p  c #114A0F",
"a  c #47A027",
"s  c #CFAA4B",
"d  c #EDE908",
"f  c #754F1F",
"g  c #047D02",
"h  c #007A00",
"j  c #000F02",
"k  c #0E6F23",
"l  c #124D10",
"z  c #3C9C26",
"x  c #3FA028",
"c  c #3D9E27",
"v  c #157426",
"b  c #0E1404",
"n  c #907438",
"m  c #068102",
"M  c #087F04",
"N  c #0A7C07",
"B  c #010C02",
"V  c #0E460F",
"C  c #3A9825",
"Z  c #40A328",
"A  c #41A429",
"S  c #3B9926",
"D  c #0E470E",
"F  c #010B02",
"G  c #117C0A",
"H  c #097E02",
"J  c #9C8242",
"K  c #C2AE7F",
"L  c #144612",
"P  c #0F7425",
"I  c #104C10",
"U  c #3E9F27",
"Y  c #3FA128",
"T  c #114511",
"R  c #C1AE7F",
"E  c #9C8142",
"W  c #0D7D05",
"Q  c #047E01",
"!  c #6B4C21",
"~  c #F2D9AF",
"^  c #EEDAB0",
"/  c #174A15",
"(  c #107827",
")  c #117827",
"_  c #3CA028",
"`  c #40A329",
"'  c #3DA129",
"]  c #134913",
"[  c #EED8AE",
"{  c #F2D9B0",
"}  c #6E5124",
"|  c #077C02",
" . c #704E23",
".. c #9E7840",
"X. c #134A19",
"o. c #0F7526",
"O. c #0C450F",
"+. c #127A27",
"@. c #3CA029",
"#. c #137C28",
"$. c #0C440F",
"%. c #0F7426",
"&. c #104A18",
"*. c #9D7940",
"=. c #6F4E24",
"-. c #0B7C04",
";. c #0B7903",
":. c #664A26",
">. c #11AED5",
",. c #0F4616",
"<. c #010B03",
"1. c #0F7527",
"2. c #137D29",
"3. c #137E29",
"4. c #0F7828",
"5. c #010903",
"6. c #0F4415",
"7. c #0FAED3",
"8. c #6A482A",
"9. c #0B7B04",
"0. c #101902",
"q. c #DBE20B",
"w. c #71471E",
"e. c #040803",
"r. c #0F7326",
"t. c #107A28",
"y. c #117C29",
"u. c #0F7627",
"i. c #040603",
"p. c #6F451D",
"a. c #DCE20C",
"s. c #111602",
"d. c #007B00",
"f. c #007600",
"g. c #0C1702",
"h. c #926D39",
"j. c #060703",
"k. c #0B400D",
"l. c #0F7827",
"z. c #107B29",
"x. c #0C420E",
"c. c #050603",
"v. c #916C38",
"b. c #101704",
"n. c #007100",
"m. c #070F04",
"M. c #000301",
"N. c #000702",
"B. c #0F7325",
"V. c #010803",
"C. c #061004",
"Z. c #006D00",
"A. c #007500",
"S. c #031403",
"D. c #16742B",
"F. c #0B3E0D",
"G. c #010A03",
"H. c #010902",
"J. c #0B3E0C",
"K. c #031608",
"L. c #007700",
"P. c #070E03",
"I. c #492D23",
"U. c #E0E4E0",
"Y. c #184A16",
"T. c #0E6F24",
"R. c #010C04",
"E. c #010D04",
"W. c #164814",
"Q. c #DAE1DD",
"!. c #395570",
"~. c #050D07",
"^. c #007C00",
"/. c #050C02",
"(. c #704323",
"). c #714222",
"_. c #0F0E0B",
"`. c #66441E",
"'. c #167226",
"]. c #050B03",
"[. c #0C3E0C",
"{. c #0C3F0C",
"}. c #050A03",
"|. c #147126",
" X c #67441F",
".X c #12100B",
"XX c #6E4225",
"oX c #724424",
"OX c #050B02",
"+X c #007900",
"@X c #0B1509",
"#X c #DFCCA6",
"$X c #C4A67F",
"%X c #144311",
"&X c #419826",
"*X c #6A4B20",
"=X c #69401E",
"-X c #070D03",
";X c #080D04",
":X c #673F1D",
">X c #6B4920",
",X c #429A27",
"<X c #144410",
"1X c #BFA37B",
"2X c #E5D1AA",
"3X c #0A1409",
"4X c #0C160A",
"5X c #0B0A07",
"6X c #050903",
"7X c #3C9826",
"8X c #419E28",
"9X c #429F28",
"0X c #3E9D27",
"qX c #3D9926",
"wX c #060C04",
"eX c #0A0A07",
"rX c #0E140B",
"tX c #020C02",
"yX c #3F241B",
"uX c #080D05",
"iX c #157626",
"pX c #409E28",
"aX c #3F9E27",
"sX c #409F28",
"dX c #167927",
"fX c #070C05",
"gX c #040A02",
"hX c #040D02",
"jX c #43261C",
"kX c #693F1E",
"lX c #69401D",
"zX c #060E03",
"xX c #060F03",
"cX c #6A3F1E",
"vX c #44261C",
"bX c #050F03",
"nX c #030C02",
"mX c #050A02",
"MX c #050D02",
"NX c #061002",
"BX c #030D02",
/* pixels */
"                                                            ",
"                                                            ",
"                                                            ",
"                        . X o X .                           ",
"                      O + @ # $ % & *                       ",
"                    = - ; : > , < 1 2 3                     ",
"                  4 5 6 7 8 8 9 0 q w e r                   ",
"                4 t y u i i i i p a s d f g                 ",
"              h j k l z x x x x c l v b n m                 ",
"            M N B V C Z A A A A Z S D F G *                 ",
"          H J K L P I U A A A A Y I P T R E W               ",
"        Q ! ~ ^ / ( ) _ ` A A ` ' ) ( ] [ { } |             ",
"          |  ...X.o.O.+.@.` ` ' #.$.%.&.*.=.-.              ",
"            ;.:.>.,.<.1.2.' ' 3.4.5.6.7.8.9.                ",
"            h 0.q.w.e.r.t.y.y.t.u.i.p.a.s.d.                ",
"              f.g.h.j.k.l.z.z.4.x.c.v.b.f.                  ",
"                n.m.M.N.B.t.t.%.V.M.C.Z.                    ",
"              A.S.D.F.G.k.4.4.x.H.J.D.K.A.                  ",
"            L.P.I.U.Y.T.R.%.%.E.T.W.Q.!.~.L.                ",
"          ^./.(.)._.`.'.].[.{.}.|. X.XXXoXOX+X              ",
"          ^.@X#X$X%X&X*X=X-X;X:X>X,X<X1X2X3X+X              ",
"            = 4X5X6X7X8X9X0X0X9X8XqXwXeXrXA.                ",
"              f.tXyXuXiXpXaXaXsXdXfXyXgXf.                  ",
"                4 hXjXkXlXzXxX:XcXvXbX=                     ",
"                  L.nXmXMXf.= NXmXBX=                       ",
"                    h +Xh     h +Xh                         ",
"                                                            ",
"                                                            ",
"                                                            ",
"                                                            "
};
