/* XPM */
static char *result[] = {
/* columns rows colors chars-per-pixel */
"30 30 109 2 ",
"   c #050703",
".  c #020B02",
"X  c #0A0C05",
"o  c #030C0B",
"O  c #0B0C09",
"+  c #110E0C",
"@  c #021303",
"#  c #0B1106",
"$  c #061903",
"%  c #0D1A01",
"&  c #0B1208",
"*  c #111107",
"=  c #13110A",
"-  c #191309",
";  c #161C0E",
":  c #221E1A",
">  c #0C3E0C",
",  c #44261D",
"<  c #48281E",
"1  c #643C1D",
"2  c #6A3C1D",
"3  c #0D440E",
"4  c #0D4A0E",
"5  c #114A0F",
"6  c #0D4A10",
"7  c #124310",
"8  c #144B12",
"9  c #006F00",
"0  c #007400",
"q  c #017B00",
"w  c #0B7D04",
"e  c #0E6E24",
"r  c #116F25",
"t  c #0F7526",
"y  c #0F7A26",
"u  c #0F7828",
"i  c #117226",
"p  c #117A27",
"a  c #1C7C26",
"s  c #17772C",
"d  c #107B28",
"f  c #1C792E",
"g  c #65451F",
"h  c #68431F",
"j  c #6F4F1F",
"k  c #724F1D",
"l  c #6B4423",
"z  c #724524",
"x  c #774926",
"c  c #7C4D22",
"v  c #7F5124",
"b  c #375370",
"n  c #80502A",
"m  c #977F37",
"M  c #96783D",
"N  c #9A7E39",
"B  c #A67E3D",
"V  c #957646",
"C  c #9D7844",
"Z  c #058203",
"A  c #0C8104",
"S  c #3B9525",
"D  c #3C9A26",
"F  c #3C9F29",
"G  c #00A430",
"H  c #3CA127",
"J  c #3EA128",
"K  c #419D26",
"L  c #48A127",
"P  c #40A329",
"I  c #A28737",
"U  c #A2823D",
"Y  c #AB843D",
"T  c #D3DD03",
"R  c #DFE802",
"E  c #ECEA04",
"W  c #EFE90B",
"Q  c #F4EF0B",
"!  c #EDF106",
"~  c #F5F006",
"^  c #F8F506",
"/  c #F6F10A",
"(  c #AA8242",
")  c #C79D46",
"_  c #CEA94D",
"`  c #D4A44C",
"'  c #D6AB4B",
"]  c #DEB04B",
"[  c #C2A27D",
"{  c #D1B17F",
"}  c #435D9D",
"|  c #13ACDF",
" . c #BFA583",
".. c #C1A684",
"X. c #CCAC84",
"o. c #CDB086",
"O. c #D7B784",
"+. c #D4B389",
"@. c #E0CCA7",
"#. c #E9D6AC",
"$. c #EDD7B0",
"%. c #EBDCB8",
"&. c #F5DDB4",
"*. c #F7E0AE",
"=. c #FAE2BA",
"-. c #E1E7E4",
";. c #E3E9E6",
":. c #EFEFF0",
">. c #F8F7F6",
/* pixels */
"G G G G G G G G G G G G G G G G G G G G G G G G G G G G G G ",
"G G G G G G G G G G G G G G G G G G G G G G G G G G G G G G ",
"G G G G G G G G G G G G G G G G G G G G G G G G G G G G G G ",
"G G G G G G G G G G G Z Z Z q G q w G G G G G G G G G G G G ",
"G G G G G G G G G A p H H H 4 p x I Z Z G G G G G G G G G G ",
"G G G G G G G Z s A H P P H 8 L E ^ ' U w G G G G G G G G G ",
"G G G G G G q 4 s F P P P 5 K _ ] Y B Q I A G G G G G G G G ",
"G G G G G q 4 t r G F P F 5 L U Q ( ` Y ~ U w G G G G G G G ",
"G G G G G q 4 y s u 3 3 8 F ! Y / O.v ` ~ k q G G G G G G G ",
"G G G G q 4 u y u u u u 3 a ! Y ( +.X.x N w G G G G G G G G ",
"G G G G q 3 t t > 3 t 6 i M Y Q O.$.X.= w G G G G G G G G G ",
"G G G G q . t 3   > 8 s 8 z B / *.: l O 0 G G G G G G G G G ",
"G G G G q   3 > . 7 #.&.X.x ` ( =.:.} ..X q G G G G G G G G ",
"G G G G q . e . 0 . C &.%.= E n &.>.} ..& q G G G G G G G G ",
"G G G G q . > @ 0 X - V | O E v &.=...; 0 G G G G G G G G G ",
"G G G G G 0 @ 0 Z E ) + o   E k X.X.; 0 G G G G G G G G G G ",
"G G G G G G q G G w X 3 e . ) * 7 # 0 G G G G G G G G G G G ",
"G G G G G G G G G q . e . 1 & e u t % 0 G G G G G G G G G G ",
"G G G G G G G G G q . e   f s o i a T % q G G G G G G G G G ",
"G G G G G G G G q . t l O ;.-.= l h a . 0 G G G G G G G G G ",
"G G G G G G G G q . u D   b b O D K D @ q G G G G G G G G G ",
"G G G G G G G G G q @ S   l z . t D $ 0 G G G G G G G G G G ",
"G G G G G G G G G G 0 @ O [ @.=   X 9 G G G G G G G G G G G ",
"G G G G G G G G G G G 0 .   O , , 2 X q G G G G G G G G G G ",
"G G G G G G G G G G G G q .   , 2 2 . q G G G G G G G G G G ",
"G G G G G G G G G G G G G q 0 .   X 0 G G G G G G G G G G G ",
"G G G G G G G G G G G G G G G q q q G G G G G G G G G G G G ",
"G G G G G G G G G G G G G G G G G G G G G G G G G G G G G G ",
"G G G G G G G G G G G G G G G G G G G G G G G G G G G G G G ",
"G G G G G G G G G G G G G G G G G G G G G G G G G G G G G G "
};
