/* XPM */
static char *result[] = {
/* columns rows colors chars-per-pixel */
"30 30 109 2 ",
"   c #050504",
".  c #080706",
"X  c #020B02",
"o  c #0B0D04",
"O  c #000909",
"+  c #0C0B08",
"@  c #011302",
"#  c #0A1505",
"$  c #0B1A02",
"%  c #0C140A",
"&  c #13100C",
"*  c #11190B",
"=  c #1B180A",
"-  c #201C17",
";  c #0B3E0C",
":  c #46271E",
">  c #442B1E",
",  c #4B291F",
"<  c #623C1C",
"1  c #6A3C1D",
"2  c #4E2F25",
"3  c #0D440E",
"4  c #0D490E",
"5  c #124B0F",
"6  c #0D4910",
"7  c #144312",
"8  c #164A13",
"9  c #006F00",
"0  c #007500",
"q  c #017B01",
"w  c #0A7E03",
"e  c #0D6D24",
"r  c #116E25",
"t  c #0F7325",
"y  c #0F7927",
"u  c #137426",
"i  c #127A27",
"p  c #1B7B26",
"a  c #16752C",
"s  c #1A772D",
"d  c #127B28",
"f  c #207F27",
"g  c #69431F",
"h  c #724E1E",
"j  c #6C4125",
"k  c #6A4820",
"l  c #734423",
"z  c #774823",
"x  c #7D4E27",
"c  c #7F4F29",
"v  c #967B3B",
"b  c #9A7F39",
"n  c #A77F3E",
"m  c #9F7A45",
"M  c #977B4A",
"N  c #028102",
"B  c #0E8304",
"V  c #3A8F24",
"C  c #3A9725",
"Z  c #3D9C26",
"A  c #3D9F29",
"S  c #00A430",
"D  c #3FA327",
"F  c #3FA229",
"G  c #439F25",
"H  c #439D28",
"J  c #48A227",
"K  c #40A329",
"L  c #4CA328",
"P  c #9B8537",
"I  c #9A823A",
"U  c #A7833D",
"Y  c #AA843D",
"T  c #DCE302",
"R  c #E0E903",
"E  c #EFEF06",
"W  c #EFE90A",
"Q  c #F1EE04",
"!  c #F3EE0A",
"~  c #F0F404",
"^  c #F6F10A",
"/  c #F9F50D",
"(  c #AA8243",
")  c #C79B47",
"_  c #C89E47",
"`  c #D5A54C",
"'  c #D4A94C",
"]  c #DDAF4A",
"[  c #C4A57F",
"{  c #3E599A",
"}  c #435D9D",
"|  c #12AADD",
" . c #BFA380",
".. c #C1A683",
"X. c #CBAC84",
"o. c #D4B483",
"O. c #D4B389",
"+. c #E6CEA8",
"@. c #EBD8AD",
"#. c #F0DAAC",
"$. c #E2D7B3",
"%. c #EFD8B0",
"&. c #F7DEB6",
"*. c #F4E0B5",
"=. c #F9E2BB",
"-. c #E5E7E5",
";. c #E7E9E6",
":. c #EFEFF0",
">. c #F7F5F5",
/* pixels */
"S S S S S S S S S S S S S S S S S S S S S S S S S S S S S S ",
"S S S S S S S S S S S S S S S S S S S S S S S S S S S S S S ",
"S S S S S S S S S S S q N q S N N N S S S S S S S S S S S S ",
"S S S S S S S S S w B b z p 4 K K K B N S S S S S S S S S S ",
"S S S S S S S S w n ` Q E J 8 D D K D d y N S S S S S S S S ",
"S S S S S S S B U W n n ] ' K 4 D K D A d 4 q S S S S S S S ",
"S S S S S S q I Q Y ) n ! U J 5 Z D D d d y 4 q S S S S S S ",
"S S S S S S q h Q ' v [ ! Y ~ G 5 3 4 y d d 4 q S S S S S S ",
"S S S S S S S w b h X.o.n Y ! f 6 u y i u y y 4 q S S S S S ",
"S S S S S S S S w o X.%.O.^ Y v u 6 t 3 3 y y 4 q S S S S S ",
"S S S S S S S S 0 o j - #.^ n l 8 p 8 ;   3 t X q S S S S S ",
"S S S S S S S q % ..} :.=.( ` z X.*.@.8 X ; 3   q S S S S S ",
"S S S S S S S q #  .} >.=.1 W & $.&.m X 0 X t X 0 S S S S S ",
"S S S S S S S S 0 * ..=.&.v Q + | M & o 0 X ; X q S S S S S ",
"S S S S S S S S S q & X.o.h Q o X . _ T B q X 0 S S S S S S ",
"S S S S S S S S S S 9 & ; o ) o e 3 o w S S q S S S S S S S ",
"S S S S S S S S S q $ t y e % < X u X q S S S S S S S S S S ",
"S S S S S S S S q @ T p u X a s X e X 0 S S S S S S S S S S ",
"S S S S S S S S q X p g k + ;.;.& > > X 0 S S S S S S S S S ",
"S S S S S S S S q @ C H C . 2 2   2 e X 0 S S S S S S S S S ",
"S S S S S S S S S 0 @ C u   l l . V @ 0 S S S S S S S S S S ",
"S S S S S S S S S S 0 #     +.[ o X q S S S S S S S S S S S ",
"S S S S S S S S S q X 1 , : .   X 0 S S S S S S S S S S S S ",
"S S S S S S S S S q X 1 1 > X X 0 S S S S S S S S S S S S S ",
"S S S S S S S S S S 0 X   X 0 q S S S S S S S S S S S S S S ",
"S S S S S S S S S S S q q q S S S S S S S S S S S S S S S S ",
"S S S S S S S S S S S S S S S S S S S S S S S S S S S S S S ",
"S S S S S S S S S S S S S S S S S S S S S S S S S S S S S S ",
"S S S S S S S S S S S S S S S S S S S S S S S S S S S S S S ",
"S S S S S S S S S S S S S S S S S S S S S S S S S S S S S S "
};
