/* XPM */
static char *result[] = {
/* columns rows colors chars-per-pixel */
"30 30 10 1 ",
"  c #00A430",
". c #1D235D",
"X c #425B9E",
"o c #4D8AB3",
"O c #65B1B8",
"+ c white",
"@ c black",
"# c #33418A",
"$ c #0D501A",
"% c #9E2E46",
/* pixels */
"                              ",
"                              ",
"                              ",
"                              ",
"                              ",
"                              ",
"                              ",
"                              ",
"                              ",
"          ........            ",
"         .Xooooooo.           ",
"        .XooOOOOOOX.          ",
"        .ooOOOOOOOO.          ",
"        .ooOO+@OO@OX.         ",
"       .XoOOO@@OO@Oo.         ",
"       .XoO##OOOOO#o.         ",
"       .XoOO######Oo.         ",
"      $.XXoOO%%##OoX.$        ",
"      $$.XXoooooooXX.$        ",
"      $$$$XXXXXXXXX.$$        ",
"       $$$$$$$$$$$$$$         ",
"                              ",
"                              ",
"                              ",
"                              ",
"                              ",
"                              ",
"                              ",
"                              ",
"                              "
};
