/* XPM */
static char *result[] = {
/* columns rows colors chars-per-pixel */
"30 30 10 1 ",
"  c #00A430",
". c #1D235D",
"X c #4D8AB3",
"o c #425B9E",
"O c #65B1B8",
"+ c white",
"@ c black",
"# c #33418A",
"$ c #9E2E46",
"% c #0D501A",
/* pixels */
"                              ",
"                              ",
"                              ",
"                              ",
"           ......             ",
"          .XXXXXX.            ",
"         .oXOOOOOO.           ",
"         .XOO+@OO@O.          ",
"        .XXOO@@OO@O.          ",
"        .XOOO@@OO@O.          ",
"        .XOOOOOOOOO.          ",
"        .XX##OOOOO#.          ",
"        .XXO######O.          ",
"         .XXO$$##OX.          ",
"         .oXXXXXXo.           ",
"          .oooooo.            ",
"           ......             ",
"                              ",
"                              ",
"         %%%%%%%%%%           ",
"        %%%%%%%%%%%%          ",
"        %%%%%%%%%%%%          ",
"        %%%%%%%%%%%%          ",
"         %%%%%%%%%%           ",
"                              ",
"                              ",
"                              ",
"                              ",
"                              ",
"                              "
};
