/* XPM */
static char *result[] = {
/* columns rows colors chars-per-pixel */
"30 30 10 1 ",
"  c #00A430",
". c #1D235D",
"X c #4D8AB3",
"o c #425B9E",
"O c #65B1B8",
"+ c black",
"@ c white",
"# c #33418A",
"$ c #0D501A",
"% c #9E2E46",
/* pixels */
"                              ",
"                              ",
"                              ",
"                              ",
"                              ",
"                              ",
"                              ",
"                              ",
"                              ",
"            ........          ",
"           .XXXXXXXo.         ",
"          .oOOOOOOXXo.        ",
"          .OOOOOOOOXX.        ",
"         .oO+OO+@OOXX.        ",
"         .XO+OO++OOOXo.       ",
"         .X#OOOOO##OXo.       ",
"         .XO######OOXo.       ",
"        $.oXO##%%OOXoo.$      ",
"        $.ooXXXXXXXoo.$$      ",
"        $$.ooooooooo$$$$      ",
"         $$$$$$$$$$$$$$       ",
"                              ",
"                              ",
"                              ",
"                              ",
"                              ",
"                              ",
"                              ",
"                              ",
"                              "
};
