/* XPM */
static char *result[] = {
/* columns rows colors chars-per-pixel */
"30 30 10 1 ",
"  c #00A430",
". c #1D235D",
"X c #4D8AB3",
"o c #65B1B8",
"O c #425B9E",
"+ c black",
"@ c white",
"# c #33418A",
"$ c #9E2E46",
"% c #0D501A",
/* pixels */
"                              ",
"                              ",
"                              ",
"                              ",
"             ......           ",
"            .XXXXXX.          ",
"           .ooooooXO.         ",
"          .o+oo+@ooX.         ",
"          .o+oo++ooXX.        ",
"          .o+oo++oooX.        ",
"          .oooooooooX.        ",
"          .#ooooo##XX.        ",
"          .o######oXX.        ",
"          .Xo##$$oXX.         ",
"           .OXXXXXXO.         ",
"            .OOOOOO.          ",
"             ......           ",
"                              ",
"                              ",
"           %%%%%%%%%%         ",
"          %%%%%%%%%%%%        ",
"          %%%%%%%%%%%%        ",
"          %%%%%%%%%%%%        ",
"           %%%%%%%%%%         ",
"                              ",
"                              ",
"                              ",
"                              ",
"                              ",
"                              "
};
