/* XPM */
static char *result[] = {
/* columns rows colors chars-per-pixel */
"30 30 6 1 ",
"  c #00A400",
". c #21110D",
"X c #755338",
"o c #9D7658",
"O c #503625",
"+ c #A9303D",
/* pixels */
"        ..............        ",
"        ..............        ",
"      ..XXooooooooooXX..      ",
"      ..XXooooooooooXX..      ",
"    ..XXooooXXXXXXooooXX..    ",
"    ..XXooooXXXXXXooooXX..    ",
"    ..XXooooXXXXXXooooXX..    ",
"    ..XXooooXXXXXXooooXX..    ",
"    ..OOXXooooooooooXXOO..    ",
"    ..OOXXooooooooooXXOO..    ",
"      ..OOXXXXXXXXXXOO..      ",
"      ..OOXXXXXXXXXXOO..      ",
"      ..................      ",
"      ..................      ",
"      ..OOOOXXOOXXXXOO..      ",
"      ..OOOOXXOOXXXXOO..      ",
"      ..OOXXXXXXOOXXOO..      ",
"      ..OOXXXXXXOOXXOO..      ",
"      ..OOXXXXXXOOXXOO..      ",
"      ..OOXXXXXXOOXXOO..      ",
"    ++..OOXXOOXXXXXXOO..++    ",
"    ++..OOXXOOXXXXXXOO..++    ",
"    ++..OOOO..XXXXOOOO..++    ",
"    ++..OOOO..XXXXOOOO..++    ",
"  ++++++..OO..OO..OO..++++++  ",
"  ++++++..OO..OO..OO..++++++  ",
"      ++++++++++++++++++      ",
"      ++++++++++++++++++      ",
"        ++          ++        ",
"        ++          ++        "
};
